# This file uses centimeters as units for non-parametric coordinates.

mtllib tile_1.mtl
g default
v -3.898943 -0.000003 3.898997
v -3.898943 -0.000003 -3.898826
v -3.898943 -7.724026 3.898997
v 3.898880 -7.724026 3.898997
v 3.898880 -1.874245 3.898997
v 3.898880 -4.980566 3.898997
v 3.638964 -3.862755 3.898997
v 3.898880 -3.805917 3.569389
v 3.898880 -0.247593 3.898996
v 3.898880 -0.000003 3.582124
v 3.280822 -0.000004 3.898997
v 0.309147 -0.000003 3.898997
v -0.148211 -0.000003 3.898997
v 0.002551 -0.570979 3.898997
v 0.027867 -0.140929 3.671613
v 3.898880 -0.000003 -0.363093
v 3.898880 -7.724026 0.000086
v -0.000030 -7.724026 -3.898826
v 3.898880 -0.000002 -3.898826
v 3.600750 -0.000003 3.653708
v -0.000030 -7.724026 3.898997
v 0.861792 -0.000003 -1.182663
v 0.754458 -0.000003 -1.326367
v -0.071144 -0.002682 3.086745
v 0.210133 -0.000003 0.941802
v 0.047400 -0.000003 0.932336
v 0.911347 -0.000003 -1.384814
v 0.808125 -0.085876 -1.254515
v 0.128766 -0.085876 0.937069
v -0.071144 -0.088555 3.086745
v 0.082948 -3.862015 -3.898826
v 3.898880 -3.862014 -3.898826
v 3.898880 -3.862015 -0.181503
v 0.001363 -5.129562 3.898997
v -3.898943 -3.323019 3.898997
v -3.549879 -5.129562 3.898997
v -3.898943 -7.003235 3.898997
v -3.898943 -5.129547 3.112314
v -3.898943 -0.000003 0.000085
v -3.898943 -3.862015 -0.393256
v -3.898943 -7.724026 0.000085
v -0.000030 -7.724026 0.000085
v 3.898880 -1.780164 -3.618346
v 3.335397 -1.863866 -3.898827
v 0.124437 -1.931009 -3.898826
v -3.898943 -1.931009 -0.196586
v -3.898943 -1.903337 3.898997
v 0.001957 -1.903337 3.898997
v 3.898880 -1.931009 -0.272298
v -3.898943 -7.078051 -3.898827
v -3.210084 -7.724026 -3.377304
v 2.032403 -0.000003 -3.898826
v 0.160896 -0.234109 -3.898826
v -1.762220 -0.000003 -3.898826
v 0.096566 -0.000003 -3.110934
v 3.898880 -5.793020 -3.898826
v 3.576339 -7.724026 -3.898826
v 3.898880 -7.724026 -3.615895
v -3.611513 -3.184094 -3.898826
v -3.898943 -5.601831 -3.898826
v -3.898943 -3.184094 -3.611397
v -3.898943 -2.494739 -3.611397
v -3.898943 -0.482056 -3.898826
v -3.611513 -2.494739 -3.898826
vt 0.511080 0.363920
vt 0.488920 0.363920
vt 0.488920 0.386080
vt 0.511080 0.363920
vt 0.511080 0.363920
vt 0.510341 0.363920
vt 0.511080 0.364857
vt 0.511080 0.363920
vt 0.500007 0.363920
vt 0.511080 0.375795
vt 0.511080 0.375000
vt 0.500000 0.386080
vt 0.511080 0.386080
vt 0.500000 0.363920
vt 0.500206 0.364063
vt 0.499579 0.363920
vt 0.500879 0.363920
vt 0.499834 0.366187
vt 0.500605 0.372061
vt 0.501632 0.377780
vt 0.510201 0.364371
vt 0.509323 0.363920
vt 0.500733 0.372032
vt 0.511080 0.364821
vt 0.488920 0.363920
vt 0.501527 0.377885
vt 0.501579 0.377832
vt 0.500673 0.372033
vt 0.501580 0.377829
vt 0.499834 0.366187
vt 0.499789 0.386118
vt 0.511080 0.386080
vt 0.511080 0.375397
vt 0.500004 0.363920
vt 0.488920 0.363920
vt 0.489690 0.363920
vt 0.488920 0.363920
vt 0.488920 0.366156
vt 0.488920 0.375000
vt 0.488920 0.375000
vt 0.500000 0.375000
vt 0.511080 0.385264
vt 0.509343 0.386091
vt 0.499683 0.386137
vt 0.488920 0.363920
vt 0.500006 0.363920
vt 0.511080 0.375596
vt 0.490878 0.384598
vt 0.505329 0.386118
vt 0.500057 0.386080
vt 0.499590 0.386154
vt 0.494522 0.386120
vt 0.500174 0.383623
vt 0.511080 0.386080
vt 0.510163 0.386080
vt 0.511080 0.385276
vt 0.488920 0.386080
vt 0.494775 0.386080
vt 0.500044 0.386080
vt 0.500029 0.386080
vt 0.488920 0.375559
vt 0.488920 0.376118
vt 0.489722 0.386080
vt 0.488920 0.385263
vt 0.488920 0.386080
vt 0.488920 0.385263
vt 0.488920 0.386080
vt 0.489715 0.386080
vn -1.000000 0.000000 0.000000
vn -1.000000 0.000000 0.000000
vn -1.000000 0.000000 0.000000
vn -1.000000 0.000000 0.000000
vn -1.000000 0.000000 0.000000
vn 0.784402 0.009447 0.620180
vn 0.786456 -0.015811 0.617444
vn 0.789613 -0.103210 0.604863
vn 0.757936 0.176238 0.628071
vn 1.000000 0.000000 -0.000000
vn 1.000000 0.000000 0.000000
vn 1.000000 0.000000 0.000000
vn 1.000000 0.000000 0.000000
vn 1.000000 0.000000 0.000000
vn 0.000000 0.000000 1.000000
vn 0.000000 0.000000 1.000000
vn 0.000000 0.000000 1.000000
vn 0.000000 0.000000 1.000000
vn 0.000000 0.000000 1.000000
vn 0.000000 0.000000 1.000000
vn 0.261336 0.819679 0.509735
vn 0.261336 0.819679 0.509735
vn 0.261336 0.819679 0.509735
vn 0.261336 0.819679 0.509735
vn -0.660650 0.607863 0.440505
vn -0.689088 0.370018 0.623092
vn -0.675590 0.542017 0.499796
vn -0.600761 0.749237 0.278802
vn 0.786375 0.559293 0.262308
vn 0.670672 0.739225 0.061196
vn 0.812216 0.480071 0.331417
vn 0.832555 0.219830 0.508456
vn 1.000000 0.000000 0.000000
vn 1.000000 0.000000 0.000000
vn 1.000000 0.000000 0.000000
vn 0.000000 0.000000 -1.000000
vn -0.000000 -0.000000 -1.000000
vn 0.000000 0.000000 -1.000000
vn 0.000000 0.000000 -1.000000
vn 0.000000 0.000000 -1.000000
vn -0.000000 0.000000 1.000000
vn -0.000000 0.000000 1.000000
vn -0.000000 0.000000 1.000000
vn 0.000710 1.000000 0.000047
vn 0.000050 1.000000 0.000003
vn 0.000093 1.000000 0.000006
vn 0.000710 1.000000 0.000047
vn -0.000160 1.000000 0.000005
vn -0.000146 1.000000 0.000005
vn -0.000687 1.000000 0.000023
vn -0.000687 1.000000 0.000023
vn -0.000687 1.000000 0.000023
vn -0.717371 0.661009 -0.220102
vn -0.756120 0.627636 -0.185353
vn -0.718565 0.660052 -0.219079
vn -0.800897 0.573111 -0.173519
vn -0.812970 0.558214 -0.165764
vn -0.898102 0.428246 -0.100093
vn -0.898102 0.428246 -0.100093
vn 0.812697 0.562197 0.153159
vn 0.900950 0.428689 0.067194
vn 0.900950 0.428689 0.067194
vn 0.801912 0.575097 0.161864
vn 0.000066 1.000000 0.000179
vn 0.003095 0.999995 0.001078
vn 0.709125 0.665619 0.232579
vn -0.000000 1.000000 0.000000
vn -0.000000 1.000000 0.000000
vn -0.000000 1.000000 0.000000
vn -1.000000 0.000000 0.000000
vn -1.000000 0.000000 0.000000
vn -1.000000 0.000000 0.000000
vn -1.000000 0.000000 0.000000
vn 1.000000 -0.000000 -0.000000
vn 1.000000 -0.000000 -0.000000
vn 1.000000 -0.000000 -0.000000
vn 1.000000 -0.000000 -0.000000
vn 1.000000 -0.000000 0.000000
vn 1.000000 -0.000000 0.000000
vn 1.000000 -0.000000 0.000000
vn -0.000000 0.000000 1.000000
vn 0.000000 0.000000 1.000000
vn 0.000000 0.000000 1.000000
vn 0.000000 0.000000 1.000000
vn 0.000000 0.000000 1.000000
vn -0.000000 0.000000 1.000000
vn 0.000000 0.000000 1.000000
vn 0.000000 0.000000 1.000000
vn -0.914059 0.000157 0.405582
vn -0.900129 -0.173924 0.399398
vn -0.914058 0.000854 0.405582
vn -0.901086 0.167871 0.399829
vn 0.000000 -1.000000 -0.000000
vn 0.000000 -1.000000 -0.000000
vn 0.000000 -1.000000 -0.000000
vn 0.000000 -1.000000 0.000000
vn 0.000000 -1.000000 0.000000
vn 0.000000 -1.000000 0.000000
vn -1.000000 -0.000000 0.000000
vn -1.000000 -0.000000 0.000000
vn -1.000000 -0.000000 0.000000
vn 0.011581 -0.999846 -0.013203
vn 0.000000 -1.000000 -0.000000
vn 0.010747 -0.999867 -0.012252
vn 0.446887 -0.010953 -0.894523
vn 0.443942 0.013659 -0.895952
vn 0.457721 -0.138378 -0.878262
vn 0.427930 0.120677 -0.895720
vn -0.000000 -0.000000 -1.000000
vn -0.000000 0.000000 -1.000000
vn 0.000000 0.000000 -1.000000
vn -0.000000 0.000000 -1.000000
vn -1.000000 0.000000 0.000000
vn -1.000000 0.000000 0.000000
vn 0.000000 0.000000 1.000000
vn -1.000000 0.000000 0.000000
vn -1.000000 0.000000 0.000000
vn 0.000000 -1.000000 0.000000
vn -0.456744 -0.800446 -0.388164
vn -0.410524 -0.796364 -0.444156
vn -0.625355 -0.769846 -0.127549
vn -0.115228 -0.695481 -0.709245
vn -0.000000 0.000000 -1.000000
vn -0.000000 0.000000 -1.000000
vn -0.000000 0.000000 -1.000000
vn -0.000000 0.000000 -1.000000
vn -0.000000 0.000000 -1.000000
vn -0.000000 0.000000 -1.000000
vn -0.000000 1.000000 0.000000
vn 0.000000 1.000000 0.000000
vn 0.000000 1.000000 0.000000
vn 0.000000 1.000000 0.000000
vn -0.000000 1.000000 0.000000
vn -0.000000 1.000000 0.000000
vn -0.005940 0.958431 -0.285262
vn 0.116210 0.954636 -0.274161
vn 0.006999 0.958713 -0.284289
vn -0.118724 0.949113 -0.291702
vn 0.655473 -0.109486 -0.747240
vn 0.000000 0.000000 -1.000000
vn 0.000000 0.000000 -1.000000
vn -0.707106 0.000000 -0.707108
vn -0.707106 0.000000 -0.707108
vn -0.707106 0.000000 -0.707108
vn -0.707106 0.000000 -0.707108
vn -0.704620 0.083768 -0.704623
vn -0.704620 0.083768 -0.704623
vn -0.704620 0.083768 -0.704623
vn -0.703528 -0.100471 -0.703530
vn -0.703528 -0.100471 -0.703530
vn -0.703528 -0.100471 -0.703530
s 1
g polySurface73 pCube1
usemtl lambert3SG
f 37/37/1 38/38/2 40/62/3 41/40/4 3/2/5
s 2
f 7/6/6 8/7/7 5/4/8
f 7/6/6 6/5/9 8/7/7
s 3
f 32/32/10 33/33/11 17/11/12 58/56/13 56/54/14
s 4
f 14/9/15 48/46/16 5/4/17 9/8/18 11/22/19 12/17/20
s off
f 10/24/21 20/21/22 11/22/23 9/8/24
s 5
f 15/15/25 14/9/26 12/17/27
f 12/17/27 24/18/28 15/15/25
s 6
f 15/15/29 24/18/30 13/16/31
f 13/16/31 14/9/32 15/15/29
s 3
f 33/33/11 8/7/33 6/5/34 4/1/35 17/11/12
s 7
f 31/31/36 32/32/37 56/54/38 57/55/39 18/12/40
s 4
f 1/25/41 47/45/42 48/46/16 14/9/15 13/16/43
s 8
f 24/18/44 26/19/45 1/25/46 13/16/47
f 20/21/48 25/23/49 24/18/50 12/17/51 11/22/52
s 10
f 22/20/53 27/27/54 28/29/55
f 25/23/56 22/20/53 28/29/55 29/28/57
f 24/18/58 25/23/56 29/28/57 30/30/59
s 8
f 26/19/60 24/18/61 30/30/62 29/28/63
f 27/27/64 23/26/65 28/29/66
f 23/26/65 26/19/60 29/28/63 28/29/66
f 16/10/67 22/20/68 25/23/49 20/21/48 10/24/69
s 1
f 39/39/70 46/61/71 47/45/72 1/25/73
s 3
f 19/13/74 16/10/75 49/47/76 43/42/77
f 10/24/78 9/8/79 5/4/80 49/47/76 16/10/75
s 4
f 34/34/81 36/36/82 37/37/83 3/2/84 21/14/85
f 7/6/86 34/34/81 21/14/85 4/1/87 6/5/88
s 15
f 36/36/89 35/35/90 38/38/91
f 36/36/89 38/38/91 37/37/92
s 16
f 42/41/93 17/11/94 4/1/95 21/14/96
f 41/40/97 42/41/93 21/14/96 3/2/98
s 1
f 2/3/99 63/67/100 62/64/101 46/61/71 39/39/70
s 16
f 58/56/102 17/11/94 42/41/93 18/12/103 57/55/104
s 17
f 43/42/105 44/43/106 19/13/107
f 43/42/105 32/32/108 44/43/106
s 7
f 45/44/109 44/43/110 32/32/37 31/31/36
f 59/63/111 64/68/112 45/59/109 31/60/36
s 1
f 46/61/71 62/64/101 61/66/113 40/62/3
f 47/45/72 46/61/71 40/62/3 38/38/2 35/35/114
s 4
f 48/46/16 47/45/42 35/35/115 36/36/82 34/34/81
f 5/4/17 48/46/16 34/34/81 7/6/86
s 3
f 49/47/76 5/4/80 8/7/33 33/33/11
f 43/42/77 49/47/76 33/33/11 32/32/10
s 1
f 41/40/4 40/62/3 61/66/113 60/65/116 50/57/117
s 16
f 18/12/103 42/41/93 41/40/97 51/48/118
s 18
f 50/57/119 51/48/120 41/40/121
f 50/57/119 18/12/122 51/48/120
s 7
f 53/51/123 52/49/124 19/13/125 44/43/110 45/44/109
f 54/58/126 53/50/123 45/59/109 64/68/112 63/67/127 2/3/128
s 8
f 1/25/46 26/19/45 23/26/65 55/53/129 54/52/130 2/3/131 39/39/132
f 52/49/133 55/53/129 23/26/65 27/27/64 19/13/134
s 19
f 53/50/135 54/52/136 55/53/137
f 53/50/135 55/53/137 52/49/138
s 8
f 16/10/67 19/13/134 27/27/64 22/20/68
s 16
f 57/55/104 56/54/139 58/56/102
s 7
f 60/65/140 59/63/111 31/60/36 18/12/40 50/57/141
s off
f 59/63/142 61/66/143 62/64/144 64/68/145
f 59/63/146 60/65/147 61/66/148
f 62/64/149 63/67/150 64/68/151
